/* XPM */
static char *_796a377e27c45eab834a6238537e318X9qQkCbIZuJuJavW[] = {
/* columns rows colors chars-per-pixel */
"64 64 8 1 ",
"  c None",
". c black",
"X c #2D1D28",
"o c #45283C",
"O c #C5803A",
"+ c #D2904C",
"@ c #D9A066",
"# c #EEC39A",
/* pixels */
"                                                                ",
"                                                                ",
"                                                                ",
"                                                                ",
"                                                                ",
"                                                                ",
"                                                                ",
"                                                                ",
"                                                                ",
"                                                                ",
"                                                                ",
"                                                                ",
"                                                                ",
"                                                                ",
"                                                                ",
"                                                                ",
"                                                                ",
"                                                                ",
"                                                                ",
"                                                                ",
"                                                                ",
"                                                                ",
"                                                                ",
"                                                                ",
"                                                                ",
"                                                                ",
"                                                                ",
"                                                                ",
"                                                                ",
"                                                                ",
"                                                                ",
"                                                                ",
"                                                                ",
"                                                                ",
"                                                                ",
"                                                                ",
"                                                                ",
"                                                                ",
"                                                                ",
"                                                                ",
"                                                                ",
"                                                                ",
"                                                                ",
"                                                                ",
"                                                                ",
"                                                                ",
"                                                                ",
"                                                                ",
"          ......                                ......          ",
"      ....@####..                              ..####@....      ",
"    ...@@@###@@#.                              .#@@###@@@...    ",
"   ..+@@####@.@@.                              .@@.@####@@+..   ",
"  ..+@@###@@. ..                                .. .@@###@@+..  ",
" ..++@@##@@.O.                                    .O.@@##@@++.. ",
"..++@@@#@@....                                    ....@@#@@@++..",
"Xo.+@@@@@@.                                          .@@@@@@+.oX",
"Xo.+@@@@+@. ..                                    .. .@+@@@@+.oX",
"XXo.+@@+@@.....                                  .....@@+@@+.oXX",
"XXo.+++@@#...#.                                  .#...#@@+++.oXX",
"XXXo.++@@####@.                                  .@####@@++.oXXX",
"XXXo.+++@@@@@..                                  ..@@@@@+++.oXXX",
"XXXo.+........                                    ........+.oXXX",
"XXXX.........                                      .........XXXX",
"X...                                                        ...X"
};
