/* XPM */
static char *_957db0178b94fe5f65cc93705c630b8DbM3d9PkYeQXkiEi[] = {
/* columns rows colors chars-per-pixel */
"64 64 8 1 ",
"  c None",
". c black",
"X c #2D1D28",
"o c #45283C",
"O c #C5803A",
"+ c #D2904C",
"@ c #D9A066",
"# c #EEC39A",
/* pixels */
"                                                                ",
"                                                                ",
"                                                                ",
"                                                                ",
"                                                                ",
"                                                                ",
"                                                                ",
"                                                                ",
"                                                                ",
"                                                                ",
"                                                                ",
"                                                                ",
"                                                                ",
"                                                                ",
"                                                                ",
"                                                                ",
"                                                                ",
"                                                                ",
"                                                                ",
"                                                                ",
"                                                                ",
"                                                                ",
"                                                                ",
"                                                                ",
"                                                                ",
"                                                                ",
"                                                                ",
"                                                                ",
"                                                                ",
"                                                                ",
"                                                                ",
"                                                                ",
"                                                                ",
"                                                                ",
"                                                                ",
"                                                                ",
"                                                                ",
"                                                                ",
"                                                                ",
"                                                                ",
"                                                                ",
"                                                                ",
"                                                                ",
"                                                                ",
"                                                                ",
"                                                                ",
"                                                                ",
"                                                                ",
"           ......                              ......           ",
"       ....@####..                            ..####@....       ",
"     ...@@@###@@#.                            .#@@###@@@...     ",
"    ..+@@####@.@@.                            .@@.@####@@+..    ",
"   ..+@@###@@. ..                              .. .@@###@@+..   ",
"  ..++@@##@@.O.                                  .O.@@##@@++..  ",
"...++@@@#@@....                                  ....@@#@@@++...",
"XXo.+@@@@@@.                                        .@@@@@@+.oXX",
"XXo.+@@@@+@. ..                                  .. .@+@@@@+.oXX",
"XXXo.+@@+@@.....                                .....@@+@@+.oXXX",
"XXXo.+++@@#...#.                                .#...#@@+++.oXXX",
"XXXXo.++@@####@.                                .@####@@++.oXXXX",
"XXXXo.+++@@@@@..                                ..@@@@@+++.oXXXX",
"XXXXo.+........                                  ........+.oXXXX",
"XXXXX.........                                    .........XXXXX",
"XX...                                                      ...XX"
};
