/* XPM */
static char *ac8845476fd047fec47d08c5ac68d3d9Rod85IraQiD4hBMa[] = {
/* columns rows colors chars-per-pixel */
"64 64 8 1 ",
"  c None",
". c black",
"X c #2D1D28",
"o c #45283C",
"O c #C5803A",
"+ c #D2904C",
"@ c #D9A066",
"# c #EEC39A",
/* pixels */
"                                                                ",
"                                                                ",
"                                                                ",
"                                                                ",
"                                                                ",
"                                                                ",
"                                                                ",
"                                                                ",
"                                                                ",
"                                                                ",
"                                                                ",
"                                                                ",
"                                                                ",
"                                                                ",
"                                                                ",
"                                                                ",
"                                                                ",
"                                                                ",
"                                                                ",
"                                                                ",
"                                                                ",
"                                                                ",
"                                                                ",
"                                                                ",
"                                                                ",
"                                                                ",
"                                                                ",
"                                                                ",
"                                                                ",
"                                                                ",
"                                                                ",
"                                                                ",
"                                                                ",
"                                                                ",
"                                                                ",
"                                                                ",
"                                                                ",
"                                                                ",
"                                                                ",
"                                                                ",
"                                                                ",
"                                                                ",
"                                                                ",
"                                                                ",
"                                                                ",
"                                                                ",
"                                                                ",
"                                                                ",
"                                                                ",
"          ......                                                ",
"      ....@####..                                               ",
"    ...@@@###@@#.                                               ",
"   ..+@@####@.@@.                                               ",
"  ..+@@###@@. ..                                                ",
" ..++@@##@@.O.                                                  ",
"..++@@@#@@....                                                  ",
"Xo.+@@@@@@.                                                     ",
"Xo.+@@@@+@. ..                                                  ",
"XXo.+@@+@@.....                                                 ",
"XXo.+++@@#...#.                                                 ",
"XXXo.++@@####@.                                                 ",
"XXXo.+++@@@@@..                                                 ",
"XXXo.+........                                                  ",
"XXXX.........                                                   "
};
