/* XPM */
static char *efef3379f61445a894c0b29da26fd61fZoB8Uvtk2CFUQu8v[] = {
/* columns rows colors chars-per-pixel */
"64 64 8 1 ",
"  c None",
". c black",
"X c #2D1D28",
"o c #45283C",
"O c #C5803A",
"+ c #D2904C",
"@ c #D9A066",
"# c #EEC39A",
/* pixels */
"                                                                ",
"                                                                ",
"                                                                ",
"                                                                ",
"                                                                ",
"                                                                ",
"                                                                ",
"                                                                ",
"                                                                ",
"                                                                ",
"                                                                ",
"                                                                ",
"                                                                ",
"                                                                ",
"                                                                ",
"                                                                ",
"                                                                ",
"                                                                ",
"                                                                ",
"                                                                ",
"                                                                ",
"                                                                ",
"                                                                ",
"                                                                ",
"                                                                ",
"                                                                ",
"                                                                ",
"                                                                ",
"                                                                ",
"                                                                ",
"                                                                ",
"                                                                ",
"                                                                ",
"                                                                ",
"                                                                ",
"                                                                ",
"                                                                ",
"                                                                ",
"                                                                ",
"                                                                ",
"                                                                ",
"                                                                ",
"                                                                ",
"                                                                ",
"                                                                ",
"                                                                ",
"                                                                ",
"                                                                ",
"                                                                ",
"          ......                                                ",
"      ....@####..                                               ",
"    ...@@@###@@#.                                               ",
"   ..+@@####@.@@.                               .....  ..       ",
"  ..+@@###@@. ..                               .####@......     ",
" ..++@@##@@.O.                                ..@@###@#@@+...   ",
"..++@@@#@@....                                .#@.@#####@@+...  ",
"Xo.+@@@@@@.                                   .@. ..@###@@@+++..",
"Xo.+@@@@+@. ..                                 . .OO.@@@#@@@+.oX",
"XXo.+@@+@@.....                                   ....@@@@@@+.oX",
"XXo.+++@@#...#.                                      .@+@@@@+oXX",
"XXXo.++@@####@.                                   .. .@@+@@+.oXX",
"XXXo.+++@@@@@..                                  .....@@@+++.oXX",
"XXXo.+........                                   .#...#@@+++.oXX",
"XXXX.........                                    .@#####@+++.oXX"
};
