/* XPM */
static char *_8834_d638e877cc3f2dd80f902a9c916512cda81a5b09ebed73c11a339fd5006f15e3[] = {
/* columns rows colors chars-per-pixel */
"64 64 16 1 ",
"  c None",
". c black",
"X c #2D1D28",
"o c #45283C",
"O c #6F762F",
"+ c #A41C1C",
"@ c #AC3232",
"# c #BB3030",
"$ c #C84545",
"% c #BBB423",
"& c #C5803A",
"* c #FBF236",
"= c #8F974A",
"- c #D2904C",
"; c #D9A066",
": c #EEC39A",
/* pixels */
"                                                                ",
"                                                                ",
"                                                                ",
"                                                                ",
"                                                                ",
"                                                                ",
"                                                                ",
"                                                                ",
"                                                                ",
"                                                                ",
"                                                                ",
"                                                                ",
"                                                                ",
"                                                                ",
"                                                                ",
"                                                                ",
"                                                                ",
"                                                                ",
"                                                                ",
"                                                                ",
"                                                                ",
"                                                                ",
"                                                                ",
"                                                                ",
"                                                                ",
"                                                                ",
"                                                                ",
"                                                                ",
"                                                                ",
"                                                                ",
"                                                                ",
"                                                                ",
"                                                                ",
"                                                                ",
"                                                                ",
"                                                                ",
"                                                                ",
"                                                                ",
"                                                                ",
"                                                                ",
"                                                                ",
"                                                                ",
"                                                                ",
"                                                                ",
"                                                                ",
"                                                . ... .         ",
"                                              ....+++.@.        ",
"                                             .++++$$$@@.        ",
"                                            ..@$$+#$$$$@.       ",
"          ......                           .@@@$##+##$$.        ",
"      ....;::::..                          .@$$+#*%++@@@.       ",
"    ...;;;:::;;:.                          .@$$#+%+##$$@.       ",
"   ..-;;::::;.;;.                          .@$$##%#$$$@.        ",
"  ..-;;:::;;. ..                           .@$$$#+$$++.         ",
" ..--;;::;;.&.                             ..@$$$+++....        ",
"..--;;;:;;....                               .+++.=..==...      ",
"Xo.-;;;;;;.                                   ....=.==..;..     ",
"Xo.-;;;;-;. ..                                 ....=...:;-......",
"XXo.-;;-;;.....                                .:..O.::;;;--..XX",
"XXo.---;;:...:.                                 ...O.::;;;;-.ooX",
"XXXo.--;;::::;.                                  .O..:;;-;;;-.XX",
"XXXo.---;;;;;..                                  .O...;;--;-.oXX",
"XXXo.-........                                   .:...;;;;--.oXX",
"XXXX.........                                    .::..;;;---.oXX"
};
