/* XPM */
static char *_5020_0b15f4a141d3ae0e36fdc7c5edea9d6b853b20b8d28bbe225bc65f368d29738f[] = {
/* columns rows colors chars-per-pixel */
"64 64 16 1 ",
"  c None",
". c black",
"X c #2D1D28",
"o c #45283C",
"O c #6F762F",
"+ c #A41C1C",
"@ c #AC3232",
"# c #BB3030",
"$ c #C84545",
"% c #BBB423",
"& c #C5803A",
"* c #FBF236",
"= c #8F974A",
"- c #D2904C",
"; c #D9A066",
": c #EEC39A",
/* pixels */
"                                                                ",
"                                                                ",
"                                                                ",
"                                                                ",
"                                                                ",
"                                                                ",
"                                                                ",
"                                                                ",
"                                                                ",
"                                                                ",
"                                                                ",
"                                                                ",
"                                                                ",
"                                                                ",
"                                                                ",
"                                                                ",
"                                                                ",
"                                                                ",
"                                                                ",
"                                                                ",
"                                                                ",
"                                                                ",
"                                                                ",
"                                                                ",
"                                                                ",
"                                                                ",
"                                                                ",
"                                                                ",
"                                                                ",
"                                                                ",
"                                                                ",
"                                                                ",
"                                                                ",
"                                                                ",
"                                                                ",
"                                                                ",
"                                                                ",
"                                                                ",
"                                                                ",
"                                                ... ...         ",
"                                               .+++.+++..       ",
"                                              ..@$$+$$$@@.      ",
"                                             .@@@$#+#$$$@.      ",
"                                            .@$$+##+##$$@.      ",
"                                            .@$$#+*%++@@.       ",
"                                            .@$$##%+##$$@.      ",
"                                            .@$$$#+#$$$@@.      ",
"                                             .@$$$+$$++..       ",
"                                              .+++.++..         ",
"          ......                               ...=..==.        ",
"      ....;::::..                              ...=.==....      ",
"    ...;;;:::;;:.                              .:..=...:;..     ",
"   ..-;;::::;.;;.                               ...O.::;;-...   ",
"  ..-;;:::;;. ..                                 .OO.::;;;--....",
" ..--;;::;;.&.                                   .O..:;;;;;-.oXX",
"..--;;;:;;....                                  .:...;;-;;;-.oXX",
"Xo.-;;;;;;.                                     .:...;;;-;-.oXXX",
"Xo.-;;;;-;. ..                                  .;:..;;;;--.oXXX",
"XXo.-;;-;;.....                                 ..::;;;;---.oXXX",
"XXo.---;;:...:.                                   .;;;;---.oXXXX",
"XXXo.--;;::::;.                                    ......-.oXXXX",
"XXXo.---;;;;;..                                         ...oXXXX",
"XXXo.-........                                            .XXXXX",
"XXXX.........                                              ...XX"
};
