/* XPM */
static char *_2197_e9c0ebd14dcb509a139d98efb0e92f9a499addebb0cf448ef01ca14b38db8f7e[] = {
/* columns rows colors chars-per-pixel */
"64 64 16 1 ",
"  c None",
". c black",
"X c #2D1D28",
"o c #45283C",
"O c #A41C1C",
"+ c #AC3232",
"@ c #BB3030",
"# c #C84545",
"$ c #BBB423",
"% c #C5803A",
"& c #FBF236",
"* c #8F974A",
"= c #D2904C",
"- c #D9A066",
"; c #EEC39A",
": c black",
/* pixels */
"                                                                ",
"                                                                ",
"                                                                ",
"                                                                ",
"                                                                ",
"                                                                ",
"                                                                ",
"                                                                ",
"                                                                ",
"                                                                ",
"                                                                ",
"                                                                ",
"                                                                ",
"                                                                ",
"                                                                ",
"                                                                ",
"                                                                ",
"                                                                ",
"                                                                ",
"                                                                ",
"                                                                ",
"                                                                ",
"                                                                ",
"                                                                ",
"                                                                ",
"                                                                ",
"                                                                ",
"                                                                ",
"                                                                ",
"                                                                ",
"                                                                ",
"                                                                ",
"                                                                ",
"                                                                ",
"                                                                ",
"                                                                ",
"                                                                ",
"                                                                ",
"                                                                ",
"                                                                ",
"                                                                ",
"                                                                ",
"                                                                ",
"                                                                ",
"                                                                ",
"                                                                ",
"                                                                ",
"                                                                ",
"                                                                ",
"          ......                                                ",
"      ....-;;;;..                                               ",
"    ...---;;;--;.                                               ",
"   ..=--;;;;-.--.                                               ",
"  ..=--;;;--. ..                                  ......        ",
" ..==--;;--.%.                                ....OOO#++.       ",
"..==---;--....                               .OOOOO####+.       ",
"Xo.=------.                                   .+##O@###+.       ",
"Xo.=----=-. ..                               ..+#@O@@O++..      ",
"XXo.=--=--.....                             .++#O@&$O@##+.      ",
"XXo.===--;...;.                             .+##@O$O@@#++.      ",
"XXXo.==--;;;;-.                             .+##@@O@@#OO.       ",
"XXXo.===-----..                             .+####@O##..        ",
"XXXo.=........                               .++###.OO**.....   ",
"XXXX.........                                 .+OOO.*.**.;-.... "
};
