/* XPM */
static char *e36c80b563ba4f358f04882ccfc1f10bYYoDXZN0Uwq16Fiy[] = {
/* columns rows colors chars-per-pixel */
"64 64 8 1 ",
"  c None",
". c black",
"X c #2D1D28",
"o c #45283C",
"O c #C5803A",
"+ c #D2904C",
"@ c #D9A066",
"# c #EEC39A",
/* pixels */
"                                                                ",
"                                                                ",
"                                                                ",
"                                                                ",
"                                                                ",
"                                                                ",
"                                                                ",
"                                                                ",
"                                                                ",
"                                                                ",
"                                                                ",
"                                                                ",
"                                                                ",
"                                                                ",
"                                                                ",
"                                                                ",
"                                                                ",
"                                                                ",
"                                                                ",
"                                                                ",
"                                                                ",
"                                                                ",
"                                                                ",
"                                                                ",
"                                                                ",
"                                                                ",
"                                                                ",
"                                                                ",
"                                                                ",
"                                                                ",
"                                                                ",
"                                                                ",
"                                                                ",
"                                                                ",
"                                                                ",
"                                                                ",
"                                                                ",
"                                                                ",
"                                                                ",
"                                                                ",
"                                                                ",
"                                                                ",
"                                                                ",
"                                                                ",
"                                                                ",
"                                                                ",
"                                                                ",
"           ......                                               ",
"       ....@####..                                              ",
"     ...@@@###@@#.                                              ",
"    ..+@@####@.@@.                                              ",
"   ..+@@###@@. ..                              ......           ",
"  ..++@@##@@.O.                               ..####@....       ",
"...++@@@#@@....                               .#@@###@@@...     ",
"XXo.+@@@@@@.                                  .@@.@####@@+..    ",
"XXo.+@@@@+@. ..                                .. .@@###@@+..   ",
"XXXo.+@@+@@.....                                 .O.@@##@@++..  ",
"XXXo.+++@@#...#.                                 ....@@#@@@++...",
"XXXXo.++@@####@.                                    .@@@@@@+.oXX",
"XXXXo.+++@@@@@..                                 .. .@+@@@@+.oXX",
"XXXXo.+........                                 .....@@+@@+.oXXX",
"XXXXX.........                                  .#...#@@+++.oXXX",
"XX...                                           .@####@@++.oXXXX",
"X.                                              ..@@@@@+++.oXXXX"
};
