/* XPM */
static char *_62dc365db564cb3c0144d1fe76355c8ykhacsbgNYJfTBYl[] = {
/* columns rows colors chars-per-pixel */
"64 64 8 1 ",
"  c None",
". c black",
"X c #2D1D28",
"o c #45283C",
"O c #C5803A",
"+ c #D2904C",
"@ c #D9A066",
"# c #EEC39A",
/* pixels */
"                                                                ",
"                                                                ",
"                                                                ",
"                                                                ",
"                                                                ",
"                                                                ",
"                                                                ",
"                                                                ",
"                                                                ",
"                                                                ",
"                                                                ",
"                                                                ",
"                                                                ",
"                                                                ",
"                                                                ",
"                                                                ",
"                                                                ",
"                                                                ",
"                                                                ",
"                                                                ",
"                                                                ",
"                                                                ",
"                                                                ",
"                                                                ",
"                                                                ",
"                                                                ",
"                                                                ",
"                                                                ",
"                                                                ",
"                                                                ",
"                                                                ",
"                                                                ",
"                                                                ",
"                                                                ",
"                                                                ",
"                                                                ",
"                                                                ",
"                                                                ",
"                                                                ",
"                                                                ",
"                                                                ",
"                                                                ",
"                                                                ",
"                                                                ",
"                                                                ",
"                                                                ",
"                                                                ",
"                                                                ",
"          ......                                                ",
"      ....@####..                                               ",
"    ...@@@###@@#.                               ......          ",
"   ..+@@####@.@@.                              ..####@....      ",
"  ..+@@###@@. ..                               .#@@###@@@...    ",
" ..++@@##@@.O.                                 .@@.@####@@+..   ",
"..++@@@#@@....                                  .. .@@###@@+..  ",
"Xo.+@@@@@@.                                       .O.@@##@@++.. ",
"Xo.+@@@@+@. ..                                    ....@@#@@@++..",
"XXo.+@@+@@.....                                      .@@@@@@+.oX",
"XXo.+++@@#...#.                                   .. .@+@@@@+.oX",
"XXXo.++@@####@.                                  .....@@+@@+.oXX",
"XXXo.+++@@@@@..                                  .#...#@@+++.oXX",
"XXXo.+........                                   .@####@@++.oXXX",
"XXXX.........                                    ..@@@@@+++.oXXX",
"X...                                               .......+.oXXX"
};
