/* XPM */
static char *c28113b5567d4d73bfb2a819380b37cbAeMcKJprkPPvcONJ[] = {
/* columns rows colors chars-per-pixel */
"64 64 8 1 ",
"  c None",
". c black",
"X c #2D1D28",
"o c #45283C",
"O c #C5803A",
"+ c #D2904C",
"@ c #D9A066",
"# c #EEC39A",
/* pixels */
"                                                                ",
"                                                                ",
"                                                                ",
"                                                                ",
"                                                                ",
"                                                                ",
"                                                                ",
"                                                                ",
"                                                                ",
"                                                                ",
"                                                                ",
"                                                                ",
"                                                                ",
"                                                                ",
"                                                                ",
"                                                                ",
"                                                                ",
"                                                                ",
"                                                                ",
"                                                                ",
"                                                                ",
"                                                                ",
"                                                                ",
"                                                                ",
"                                                                ",
"                                                                ",
"                                                                ",
"                                                                ",
"                                                                ",
"                                                                ",
"                                                                ",
"                                                                ",
"                                                                ",
"                                                                ",
"                                                                ",
"                                                                ",
"                                                                ",
"                                                                ",
"                                                                ",
"                                                                ",
"                                                                ",
"                                                                ",
"                                                                ",
"                                                                ",
"                                                                ",
"                                                                ",
"                                                                ",
"                                                                ",
"                                                ......          ",
"                                               ..####@....      ",
"          ......                               .#@@###@@@...    ",
"      ....@####..                              .@@.@####@@+..   ",
"    ...@@@###@@#.                               .. .@@###@@+..  ",
"   ..+@@####@.@@.                                 .O.@@##@@++.. ",
"  ..+@@###@@. ..                                  ....@@#@@@++..",
" ..++@@##@@.O.                                       .@@@@@@+.oX",
"..++@@@#@@....                                    .. .@+@@@@+.oX",
"Xo.+@@@@@@.                                      .....@@+@@+.oXX",
"Xo.+@@@@+@. ..                                   .#...#@@+++.oXX",
"XXo.+@@+@@.....                                  .@####@@++.oXXX",
"XXo.+++@@#...#.                                  ..@@@@@+++.oXXX",
"XXXo.++@@####@.                                   ........+.oXXX",
"XXXo.+++@@@@@..                                    .........XXXX",
"XXXo.+........                                              ...X"
};
