/* XPM */
static char *_b7c3ed2ee9f46e5e16908a7aed5f49dAchYF6VnpndTwb6i[] = {
/* columns rows colors chars-per-pixel */
"64 64 8 1 ",
"  c None",
". c black",
"X c #2D1D28",
"o c #45283C",
"O c #C5803A",
"+ c #D2904C",
"@ c #D9A066",
"# c #EEC39A",
/* pixels */
"                                                                ",
"                                                                ",
"                                                                ",
"                                                                ",
"                                                                ",
"                                                                ",
"                                                                ",
"                                                                ",
"                                                                ",
"                                                                ",
"                                                                ",
"                                                                ",
"                                                                ",
"                                                                ",
"                                                                ",
"                                                                ",
"                                                                ",
"                                                                ",
"                                                                ",
"                                                                ",
"                                                                ",
"                                                                ",
"                                                                ",
"                                                                ",
"                                                                ",
"                                                                ",
"                                                                ",
"                                                                ",
"                                                                ",
"                                                                ",
"                                                                ",
"                                                                ",
"                                                                ",
"                                                                ",
"                                                                ",
"                                                                ",
"                                                                ",
"                                                                ",
"                                                                ",
"                                                                ",
"                                                                ",
"                                                                ",
"                                                                ",
"                                                                ",
"                                                                ",
"                                                                ",
"                                                                ",
"                                               ......           ",
"                                              ..####@....       ",
"                                              .#@@###@@@...     ",
"                                              .@@.@####@@+..    ",
"         ......                                .. .@@###@@+..   ",
"     ....@####..                                 .O.@@##@@++..  ",
"   ...@@@###@@#.                                 ....@@#@@@++...",
"  ..+@@####@.@@.                                    .@@@@@@+.oXX",
" ..+@@###@@. ..                                  .. .@+@@@@+.oXX",
"..++@@##@@.O.                                   .....@@+@@+.oXXX",
".++@@@#@@....                                   .#...#@@+++.oXXX",
"o.+@@@@@@.                                      .@####@@++.oXXXX",
"o.+@@@@+@. ..                                   ..@@@@@+++.oXXXX",
"Xo.+@@+@@.....                                   ........+.oXXXX",
"Xo.+++@@#...#.                                    .........XXXXX",
"XXo.++@@####@.                                             ...XX",
"XXo.+++@@@@@..                                                .X"
};
