/* XPM */
static char * door_xpm[] = {
"128 128 22 1",
" 	c #595652",
".	c #640707",
"+	c #6F3230",
"@	c #000000",
"#	c #524E48",
"$	c #696A6A",
"%	c #7B756E",
"&	c #440808",
"*	c #841010",
"=	c #7F413D",
"-	c #891212",
";	c #8D1313",
">	c #6C2E2B",
",	c #AC3232",
"'	c #BF5959",
")	c #49433C",
"!	c #672926",
"~	c #773C3C",
"{	c #9B1515",
"]	c #23141F",
"^	c #4F3F47",
"/	c #3B342C",
"             .+@##      @$$$  $$@   #%%%     +%##                            ##%%      %%%#   @$$  $$$@      ###@               ",
"       +     .+ ###      @$$  $$@   #%#%    &@@%###   %  %          %  %   ###%%@@@    %#%#   @$$  $$@      ###@             . *",
"      #=     .+ @###     @$$  $$@   #% #% @@-;@%%##   #%%%          %%%#   ##%%@@;;@@ %# %#   @$$  $$@     ###@         %#... * ",
"     #==%    .+  @##      @$$  $@   #% #%@@*&;;@%%##   ##%          %##   ##%%@@;;@ @@%# %#   @$  $$@      ##@         %=.#***  ",
"     #%>#%   .+   @## @   @$$  $@   #%    +*@;;;@%###   #%          %#   ###%@;;;;@      %#   @$  $$@   @ ##@         %>>.*     ",
"     #%++#%% .+%   @###@   @$   $@  ##  #+* @@,;@%%##   #%          %#   ##%%@;,,@@   #  ##  @$   $@   @###@    %   %=>*.%#     ",
"     #%++ ##.*%     @###@  @$   $@      >%%* @,,;@%##                    ##%@;,',@  %%#      @$   $@  @###@      %%%>#*. %#     ",
"     #% ++ #.*%      @##@@  @$  $@     #=#%*  @,;@##                      ##@;,,@  %%#%#     @$  $@  @@##@       %#>#*.  %#     ",
"     #%  ++ .+*       @##@@ @$$  $@    #%+#.  @,;@##      %%%%%%%%%%      ##@;,@@  %# %#    @$  $$@ @@##@        %+**.   %#     ",
"@    #%   ++. * %      @##@@ @$   @    #%+..=% @@@#      %%        %%      #@@@@ %%%  %#    @   $@ @@##@      %  =*  .   %#    @",
" @   #%#  ++. =*%%      @##@@@$$  $@   #% +.>% #@@@     %  @@@@@@@@  %     @@@#  %#   %#   @$  $$@@@##@      %% +%* .   #%#   @ ",
" @    #%   +. %*##%%% %# @#@  @$  $$@     .* >%#))@    % @@))))))))@@ %    @))# %#        @$$  $@  @#@ #% %%%## +%*.    %#    @ ",
"  @    #%%% .+  *####%##  @  @@$$  $@     .* >%#))@   % @##@#))))#@##@ %   @))# %#        @$  $$@@  @  ##%#### + * . %%%#    @  ",
"   @    ###%%.+ *   .%    @ @  @$  $$@    .* >%#)@   % @###@@####@@###@ %   @)# %#       @$$  $@  @ @    %#   +  *.%%###    @   ",
"..... ***  ##=.+ *  .%    @#@  @$$  $@  @@.* >%#)@  % @###  @))))@  ###@ %  @)# %#  @@@  @$  $$@  @#@    %#  +   *.##      @ ###",
"****.........#.++* .#%    @@@   @$  $$@ @).* >%#)@  % @##   @@@@@@   ##@ %  @)# %# @@)@ @$$  $@   @@@    %#  +  *.#>      @ ###@",
"$@### @@  ** ..%**+.#%   @##@## @$   $$@))). >%#)@ % @###  @;;;;;;@  ###@ % @)# %# @)))@$$   $@ ##@##@   %# +  %.#>     @@ ###@$",
"$$@@##  @   ***..* .=   @   @@##@$   $$@#)!.@+ #)@ % @##  @;;;;;;;;@  ##@ % @)#   @)))#@$$   $@##@@   @   %#+ %*.+     @  ##@@$$",
"$$$$@@## @@    +...+++@@      @@@$$   $$@#>*.. #)@ = @#   @;;,,,,;;@   #@ % @)#  @@)##@$$   $$@@@      @@   +=*.+    @@ ##@@$$$$",
" $$$$$@##  @    ++..+&+      ##@$$    $$$@#*).+ #!&  @#  @;;,,,,,,;;@  #@  @)#   @))#@$$$    $$@##       @ ++ *.    @  ##@$$$$$ ",
"    $$$@@)  @@  +  *.+++   ###@@$$     $$$@#*). >)@  @#  @;,,,,,,,,;@  #@  @)#  @))#@$$$     $$@@###      @+ +*.  @@  )@@$$$    ",
"$     $$@@##  @  + *@...>####@@$$$      $$@##*.+#)@   @  @,,,,'',,,,@  @   @)# @@)##@$$      $$$@@#####   @+ +.  @  ##@@$$     $",
"@@$$    $$@### @@+  * +#..##@@$$$        $$@#*.+ #)@  @  @,,,'''',,,@  @  @)#  @)##@$$        $$$@@#####  & +*.@@ ###@$$    $$@@",
"%%@@@$   $$@@##  @&@ * ##>.@@$$$          $$@#.@  #)@ #@  @,'''''',@  @# @)#  @))#@$$          $$$@@####  +&&.   ##@@$$   $@@@%%",
"%%%%@@$   $$$@##  +   ***#.@$              $$..)@ #)@  #@ @,,'''',,@ @#  @)# @)##@$$              $@@####++ ..  ##@$$$   $@@%%%%",
"$$$%%@@$   $$$@##  +#####*@.     $$$$$$    ...*#)@@  @@ #@@,,,,,,,,@@# @@  @@)##@$$     $$$$$$      @@>>>>#+. ###@$$$   $@@%%$$$",
"$$$$$%@@@$  $$$@##  ###@@$**..  $$$$$$$$  *.**$@@)@@@))@ ##@@@@@@@@## @))@@@)@@@$$     $$$$$$$$     $$&@#>#+*###@$$$  $@@@%$$$$$",
"###$$%%%@@$    $@###@@@$$   $~.$@@@@@@&**..+  $$@@@)))))@@@########@@@)))))@@@$$$    $$$@@@@@@@$$$$  +$$&@&#*#@@$    $@@%%%$$###",
"@@####$%%@@$    @@@@@$$$   $@@&.@& @%@...$~    $$$@@@###)))@@@@@@@@)))###@@@$$$$    $$@@@@%@ @@@@@@$+  ~$$&@*@@$    $@@%%$####@@",
"@ @@@@##$%@@$$  $$$$$$$   $@@@&@.*@@%..@@@&$$$   $$$@@@@@#))))))))))#@@@@@$$$    $$$@@@@%%%@@  @@@@@~++ $$~*$$$   $$@@%$##@@@@ @",
"      @@@$%%@$$   $$$    $@@%%@++.***.+%%&@@$~$    $$$$$@@@@@@@@@@@@@@$$$$$     $$$@@@%%   @@   @%%@&$   +$*$    $$@%%$@@@      ",
"         @$%%@@$   $$    @%%%%@+ ..@.&&  +%@@~$$        $$$$$$$$$$$$$$        $$$$@@%   @@@@ @  @%%%=@  + *$   $$@@%%$@         ",
"##        @$%%@@$$      $@=%%%&++@ *.+@@+  %%&@$$$ $$     $$$$$$$$$$     $$ $$$$@@%%   @@    @  @%%=%@$ + *  $$$@@%%$@        ##",
"###        @$$%%$$$ $ $$@+ + &+  &@ .+ &@@   =@@$$$$$$$  $$$$$$$$$$$$  $$$$$$$@@@%   @@@    @@   @ +  @~$.. $$$@%%$$@        ###",
" ###        @$$%@$$$$$$@@+&@ &+ @>@*.&&   @@ + @@@@$$$$$$$$$$$$$$$$$$$$$$$$@@@@@   @@   @@@@@#@  @ &****..*$$$@@%$$@        ### ",
"  *****      @$$@@$$$$@&+&##&+  @#*#.>#@@   &@ %@@@@@@@@@@@$$$$$$$$@@@@@@@@@@@%  @@   @@######@   **#&...$$$$@@$$$@        ##  *",
" *  #  **     @#$$@$~&& @>#@+&  @*&*.@@##@@@+ @@%%%@@@@@@@@@@$$$$@@@@@@@@@@%%%@ @  @@@##@@@@@@@  *+@>.@ @@$$@$$##@         **** ",
"......   *     @#$&&$@ @>#@+@&@@**+*+.@@@##>@@  @@@   %%%@@@@@$$@@@@@%%%   @@@   @@###@@@@   @@@*@&+.##@ @$@@$##@        ** ... ",
"      ... **    #>$@@@@#>@ &.***...* . @@@@>##@@   @@   %%@@@@$$@@@@%%   @@   @@@###@@@@       *@&.. @##@@@@$##@       **#..    ",
"............... &##$@@@>**..*+ . *+ *. @ @@&####@@   @   @##@@$$@@##@   @   @@#####@@@ @      *+.. @@ @#@@@$##@      ** #.+     ",
">#      .      ..******* .+  ..  *+ *..@   &@#####@   @@@###@@$$@@###@@@   @######@@   @ ++  *+. +   @ @ @$##@      * .#. +   ##",
"#>>++++  #    ++.....&&+ .... +  +* *..&   + @@####@@ @####@ @$$@ @####@ @@#####@@     @+ **. . +    @  @@##@     ** ... +   ###",
"@####  +++>+++  +  >...... {+ +  +* ...@+  +  @######@###@@  @$$@  @@###@####>#@@ +    &**....  +     @ @###     ** ... +  ####@",
" @####      + +++++@##@@&.{ + +  +*  ..@+ +    @@@@##@##@    @$$@    @##@#>&&@&& + ++++&*.. .  +      @@@##@    * *... ++ ####@ ",
"  @####    + %%  +  @#@& {  + + + *  .. + +       @@#@@@  + @@$$@@    @@@>@@    +++++  *&...   +    ++ @@#@     **. . ++ ####@  ",
"@@ @@###  +  %%%  ++&~&+{.+++ + + *  .*. +=%%%%    @@@&&@ & @@$$@@ @ @@&&@@     %=%%%  *&.+  ++   ++++  @$@    **.%. ++ ###@@ @@",
"$$@ @###.+   %%%%  +@$@{+ .*++=   * +.@. +>%%##%    @#&*@ & @@$$@@ @ @#@#@    %%>#=%#  *@. +++++=+    ++@$@   **.%. ++  ###@ @$$",
"$$$@ .....****%%%   &${  +. = ==%  *+.@*.+#%#  %    @#*@ .@ @@$$@@ @  @@#@    %>  #=# *+.. ++ %%% %    +&$@****.%. ++  ###@ @$$$",
"@@$@. @#>>.+  **+++ @~{  +*.= >>#%%*+.% .+#%    #%  @*@@. @ @@$$@@ @  @@#@  %#+#   %> * .>+ %%### %# +++***  *.%.=+   ###@  @$@@",
"  @$.  &###.   %*  >&{@   *.= >#>  *>.% *.#%    #%  @*@.. @ @@$$@@ @  @@#@  =>+++++=>*+.=>>   ### %*****@..# .++=    ###@  @$@  ",
"  @@$@ @####.+  * ##@{&>##*.= + +  *.%   .#%    #%  *#.&  @ @@$$@@ @  @##@++=# ++ +=>*+.+%#+   +++*#*###..&..+ +    ####@ @$@@  ",
"   @$@  @###+.+ * ##@{@ +++*. +  + *.%   *.%    #% *..>@  @ @@$$@@ @  @********* ++=*+.+ %# +++  *%#*......>#++     ###@  @$@   ",
"    @@@ @@##+ .+* ##@{@ +  *. + ++* .%  +*.#    #%*.@#>@  @ @@$$@@ @  &*#&++=#+ ** *#.++ %>+  + *.%#.....$&#>       ##@@ @@@    ",
"    @$@  @###+ .* ##@${  + *.+++  *+.%  +*.     #*..@>#@  @ @@$$@@ @ +@#>@  %>+   **.. ++=#    +* ...*  @$&>#   #  ###@  @$@    ",
"     @$@ @@##  .*+##@${   +*.+++  * .=  ++*.    *.. &##@  @ @@$$@@ @+ &>#@  =# ++***.++++%   ++* .%> *  @~&##  #   ##@@ @$@     ",
"     @$@  @### .* >@$${   +*{.%%%%*. %+ ++*.  #*..  +@##@ @+&@$$@@ @+&##@  +#+=.**++..++ =+%%=%*.%=# *  &$$@# #   ###@  @$@     ",
"      @@@ @### .*##&$$@{   *{{>##>*.  +++ *.  *..  + @##@ @ @&$$@@ &+@##@ +++ #%............>{{.>>%# * +&$$@###   ###@ @@@      ",
"      @%@@ @###.#*#&$@ {   +*.{{ >*.   ++  . ..    + @##@@@ @&$$@@+&@@##@ + +++=>..%+*++++ {{#..     *++ @$@##*#####@ @@%@      ",
"       @%@ @@####*@$]]^{  ++*.+ {{..  ++ %*...#   +   @##@@@@&$$@&&@@##@ +++  +=#  ===*  {{ =.+*.    * + @@$@..####@@ @%@       ",
"       @%=&+@#****$]&  ^{+  *.++{{.%%===%%*.* #  +    @##@##@&$$@@>#@##@++   + %# +>>%={{%%=*.#*.   +* + **..*@@###@ @%%@       ",
"        @%@..*&@$.** + +{    *.>%*>###.....*  # +     @##@#>&@$$@@>>&>>&+  ++++=>+ +>{{*##>>>=.**  + **....*@$$@@@@  @%@        ",
"#   %%  @%%*.....&..*** {  ++*.+>*+ ..****.   #+       @@@>##@$$@###@@@++ +  + %> {{{+  * +  %.*  + ...+   @@@$     @%%@  %%   #",
"#   %%  @$%@@@@@...+...**** +*.{***..   *.    >  +      @@&@@@$$@@@@@@++ +   + =>{+  + +* + **.*++*.   +    @$@@@@@@@%$@  %%   #",
"###  %   @%@$%%%%@..*  ...+**{{{*..   +*.     >++       +&@@@@$$@@@@@+ + +   ++=>{+ +  ** **{{{.%*..  +=     @%%%%%$@%@   %  ###",
"@@## %  #@%@$  $$@ +.* >%.%%{{{{..++++* {{{{ +>       ++     **$@  **++ +   +++={+...**+ *{{{*.....%%%=#+    @$$$  $@%@#  % ##@@",
" @@##   #@%@$$  @ + .*++##>{{{{.**  ++*.++  {{#      +      *@..@   * + +  ++++{.. +..++ *{***.*...*##> +  *  @   $$@%@#   ##@@ ",
"   @#  ##@%@$$$$@+  ..* +++{*{*..%+++*.   ++++{++  ++   #% ...*$@   *# + ++ +{{.**** + ++****.*  .....+ +  *  @$$$$$@%@##  #@   ",
"$  @## ##@$@$$$$ +   .......*{..*=  *.=%==+%   {++++++  #... @$**  *{*+ +  +.{**++ % =%%=*....#***   ..******  @$$$$@$@## ##@  $",
"$$@ @####@$@$$$@+   +  %= ..{*.... *..#>#>%   ++{{    ++..*  @$$@*{{{{.+  +.. *@++  =###>..* .....    =..... * @@$$$@$&####@ @$$",
"%$@ @####@~@$$$@+  ++ #%++*.{..+*.*..#  +## ++@@ ##%  ..*%   @$$@*...... +%.**&=&+  >#  +> **.    .+  +%> ..... @$$$@~@####@ @$%",
"%%$@ @@@@ +@$$@&  + + {{+ *.{.**++..*****+++  @%@ #...*+  %  @$$@......  =.**&==&  +    ++ *.     *.++ %> ....* @@$$&  @@@@ @$%%",
"$%$$@     &@$$&  +  +{{%=..{...+*+ ....  *    ......**#  #% +@$$&*..* +#= . &===&  +   ++ .*.    + . =%%> ..  ...@$~@@     @$$%$",
"$$%$@@@    &@&@ +  {{ #%..{={ ...+++ ++...**...***&+  #% #=++&$~@ *%#+=#*.+&@=+&+ +    ++..*.    + *.##%> .     *.*&@    @@@$%$$",
"$$%$$@@@   ++ @ +  {+ #*. >#{=   ..=+  ++ ..     =@+  #% = ++&~$@ * %+=*. +&= +@+ +    ++....+  +%%#*. %>*.      @..****@@@$$%$$",
"$$%%$@//@@    @+#%{ + *..  #{>%%%*#. ++  &+>+    +&   #%+ ++ @$$@ .  +.. ++&+++@+ +# @++.* ...=%=###+. %>.   %#  @ +.**@**..*%$$",
"$$$$$@)//@@  @ +#{  +*..*+  {>>## *%.  + @@ #>>+++&   #= +   @$$@ . ..%>++ &++ @>#> @@++.* %..*>># +.. %#.   %#   &  ......$$$$$",
"$$$$$@))///@@  +{% + *..+*  { +   #**.  +&@&@@@# +@   >%     @$$@...*+=#+++@++##&@&@@&++.* %#...+  + .*%*.   %#  + @@.*/))@$$$$$",
"$$$$$@))))/@   {#% +*..=. * {  +  #% .+  @>@&+  >#@  +#%     @$$@   ++%#+ +@>>  + &@#&+.*+ %#  ..* + .*%*.   %# +   @.*)))@$$$$$",
"$$$$@@)))))@  +{#% **..%.  * { ++ #% *.  @@>  ++  # + #%     @$$@  +++%>   >+  +  +#@& .*+ %# +..+*+ .*%. %% %#+    @.*)))@@$$$$",
"$$$@@@@)))@@  + #%*..%++.  * {  + #% +*.. @@+     @+  #%     @$$@ ++ +%>   &+  +  +@@+. *+ %#+  ..*++..*.%># %#+    @..))@@@@$$$",
"$$$@   @))@   + #%*.##==..  *{  ++#%  + *.*@ +    &   #%     @$$@ +   =>   &+  +   &++.*++ %>  +.. *+ .*%#>+ =>      @..@   @$$$",
"$$@##   @@@  +  #%.  #>>>.%%%{   +>%  +   ..* +  +@          @$$@+    ++   &+  +   &+ .*++ =#  + .%*=%.*** ++%#      @@.   ##@$$",
"$$@###....@@ +   *.  + +>...%{   +>%%  +   @..+++ @     %%   @$$&   %%+    &+ +    &+ .* +%=#   +.=>*>.  *++=#      @@ *. ###@$$",
"$$@@...**..&+    *.  + ++  .. {  + +%  +   @+ ..  @     %#   @$$&   #%+   +@+ +    &+ .* +=     + .>**.+ *++%#      @  *.##@@@$$",
"$@@/@@##  +..   **.  + + + #..*++++++   + +&+ +*..@  %%%%    @$~@    =%=% +@+ +   +& .*+++       +%.*++. * +%%      @   ..@**@@$",
"$@))/@@## @ ..@@*+.  + + ++#% ..@&  +   ++@& + + *.  ####    @$~@    >#># +@+ +   +@@.*+++   @@@  =.*  .  * +   @@   @ ##../)*@$",
"$@)))/@@@@@  @... .  + + + >%  .*&@@&&  +@@&+  + **...       @$~@    + +  +&+ +  + @.*+++@@@@@ @  %*.+ .  * +  @$ @  @@@@@.)**@$",
"$@))))//@@   @ $**.. ++   ++% @. * + @&&&&+@+ +  **.    #%%  @~$@  %%> + ++& +  ++ @.*&&@@     @@ %+.+  . * + @$$ @   @@//).*)@$",
"$@@)))))@    @ ~$.* + +    ++ @.+*++   ++  @+ + *@.*.    #   @~$@  +>+ + ++ &+ ++  @.*++        @  *.+  . * @&$$$ @    @))).*@@$",
"$@@@))))@   @ $*..$@& +    &@&@ .*++    +  @+ + *. * ..  #%  @~$@ +%#+ +++ +@>++   &. ++        @@@*.+  . @*$=%%%$ @   @)).)*@@$",
"$@  @)))@  @ $~..%$$~@&@@@@~$$& . *>####>+ @ ++#*.  *    #%  @~$@++=>++ ++  &#>****..+>#####    @$$..&@@@.$*$=$$$$$ @  @)).*  @$",
"$@#  @@@@  @ ~..$$$%=$~$$$$$~$@+. *&@@@@#+@@ ++#.  #*    #%  &$$&+ %#+  +%>+ **+*.*.@+*@@@@@#   @$*.*~~$$.%*$~$$$$$ @  @@... #@$",
"$@#     @  @ ~*.$$$$=%=$$$$$~$@#. @*    @>&  ++@.  #%*   #%  &~~@  %#+  +=#*....... &**     @  #@*.$$~$~%.%*$~$$$$$ @  @ ..* #@$",
"$@###    @ @ *$.$$$$~$~%%%%%~$@#.+@*~$$ @>@+ ++@.  #%*    % +&~$@  % + ++=*....# .  **@ $$$ @ ##@*.%%=%=$.$*$~$$$$$ @ @   .*##@$",
"$@@@###  @ @ **.$$$$~~$$$$$$$~$@.&+*~$$$ &@+ ++.   #%   #% + &$$@   %>+ +..+.  & .+.*@ $$$$$ @#@$.$$$~$~$$.*$~$$$$$ @ @  #.*@@@$",
"$@/@@### @ @ $*.$$%$~~$$$$$$$$*.#@*$$~$$ &  ++>.   #%   #%+ +@~$@  +=>++..#.+  @.+..*@ $$$$$ @#@..$$$~$$~$.*%~$$$$$ @ @ ##.*@/@$",
"$@///@@@@  @ $.* %%=~$$$$$$***...#*~$~$$&+  +>&*.  #%   #=++ @$$&++ %>+....++   .#.   @$$$$$@##@.$$$$$~$~$.*%= $$$$ @  @@.@*//@$",
"$@))///@   @ $.$ % ~=$$$$$*$...&#*&$~~~~&   >&+*.  #%  +>+   @$~@   +..  .> +   +@.   @$$$$$@@#@*.$$$$~$~$.* = $$$$ @   @.**))@$",
"$@)))))@   @ $$$ % +~%%%%*..$$$&#&!@@$$~&++>& *.   #% ++     &~$@  ..*  ..> +  + .@#  @$$$@@)@#@*.$$$$=%=%.* = $$$$ @   @.))))@$",
"$@)))))@  @ $$$$  %+  %%*$.$$$$@&@!))@@&  >&  *.   #%+    +++****..**  ..%> +  +*. @#  @@@)))@@@$.$$$$=%= . *  $$$$$ @  *.))))@$",
"$@)))))@  @ $$$$$ %~~  *%.$$$$$@@~&)))@ ++#&  *.   >=+  ++  *....**    . => +  +*. @#   @)))@$@@$.$$$$=$+ .$* $$$$$$ @  *.))))@$",
"$@@@@))@   @ $$$$ %~~~ *.$$$$$$@@~~@@@  >>@+ +*.  ++++++  ....$~&+++...  +  +  *.   @##  @@@$$@@$$.$$~=+ $.$* $$$$$ @   @.)@@@@$",
"$$$$@@@@   @ $$$$+=$$$*..$$$$$$@&$$&&  #>@+  +*.++*+   ....++&~~@.... ++ +  ++ *.    @##  @@$$@@$$.$$$%$$.$$* $$$$$ @   .*@@$$$$",
"$$   $$@    @ $$~ %$$*.$%~$$$$$@&@@@   >@+   +*.==*==..*.+.......       =====%*+.+    @#   @@@@@$$$.$$%$$.$$* $$$$ @    .*$   $$",
"  @@@  $@@   @+~$$%$$..$%~$$$$$@+ @@ +>&++++++*.=#*..*....+++@$$@    +++=>>>>=*+.      @#  @@  @$$$.$$%$.$$*%$$$$ @   @@.* @@@  ",
"@@   @ $$$@ +& $$  %*.$$%$~$$$@+  @   >&  +*** .# . *%.+++   @$$&++++  +%> > *=.       @#   @   @$$.*$%$.%%*  $$$ @  @$$$*@   @@",
"       @$%$&  @ $$  *.%%$$~$$@@>#    >@ ++*  ++...  *. +     @$$&+     +%> + *>.        @#    ##@@$..*$.%$ * $$$ @  @$%$*       ",
"####   @$%%$@  @$$$*.  $$$~$@@~@#   >@++ * +++..  **.%  +++++&~~&+     +=#+ * .%         @#   #@$@@$$*$$   *$$$$@  @$%%$@*  ####",
"###### @$$%$@  @$$*.$$$$$$~@@&@ @  +#&  *  ...*# * .#=++   ++&$$@      +=>  *.>#%        @#   @ @@@@$$$$$$*$$$$ @  @$%$$@ ######",
"@@@@@@@$$%%$@  @$$*.$$$$$$&@~@  @ +#&  *#%.+ %*** .#>%   ++ +@$$@      +%>#* .+ #%   %#   @#  @  @$@@$$$$$$$$$$ @  @$%%$$@@@@@@@",
"@   $$$$$$$$@  ***  $$$$$@&~$@  @ >&  * #.=+ %*  .+>#%+++  + @$$@     ++=##*. +##%  %%#    @# @  @$$@@$$$$$     @  @$$$$$$$$   @",
"@@@       $@   *@@@@    @@~$@   @ >@ * ..%++ %* .+  >=    +  @$$@     ++%#*.  + #%   %#    @# @   @$$@@    @@@@@@   @$       @@@",
" @@@@@@@@@@    @$$$@@@@@$$~@@ $ @+#@* .*#=+ %#*. +++#%   +   @$$@    + +%#.   + ##%  %#    @# @ $ @@$$$@@@@@$$$$@    @@@@@@@@@@ ",
"   @###@     @@@@@@@$$$$$=%@ $$  +#* . *#%+ %+*.+   #% ++    @$$@    +++%.*   +   %  %#    @#   $$ @%%$$$$$@@@@$@@@     @###@   ",
"   @###@   @@@$$    @$%%%%$@+~$~*** . ..#%+%= .    +#%+      @$$@   ++ +%.    +   %% %#     @  $$$ @$%%%%$@    @$$@@@   @###@   ",
"   @# #@  @ $$$$ @@ @$$$$$@@ ~~~* ..  .*.%+++..     >=       @$$@ +++   .#    +      %#     @ @$$$ @@$$$$$@ @@ @$$$$ @  @# #@   ",
"   @# #@  @  $$$#@@ @$$$$$@ $$$~&.@   .*.=**..    ++>%       @$$&+     .*#    +      %#     @ @$$$$ @$$$$$@ @@#@$$$  @  @# #@   ",
"$  @#  @   @@   ##  @$$$$$@ $$$$. @     .=++     +  #=+    * &~~@      .%#    +      %#     @ @$$$$ @$$$$$@  ##@   @@   @  #@  $",
"$  @#   @    @@@@@@@ $$$$$@ $$$.@+ @    *.+ +++++   >= ++ ++*@$$@    .. %#    +      %#    @  @$$$$ @$$$$$ @@@@ @@@    @   #@  $",
"$  @#    @      @@@     $$@@$$.$@#+@   +#.+         #=+++++++**$@ **.*+ %#           %#    @ #@$$$$@@$$     @@@@      @    #@  $",
"$$  @#    @        @@@@@ $$@$$$$@# &+ + #. +        #%  +++ +&~***+.    %#           %#    @ #@$$$$@$$ @@@@@         @    #@  $$",
"$$$ @##    @@           @ $@$$$$@#  @+  #%.+        #        @$$@..      #           %#   @  #@$$$$@$ @            @@    ##@ $$$",
"$$$$ @###    @@@        @ $@$$$$$@# @ + #%.*                 @$$.                    %#   @ #@$$$$$@$ @        @@@@    ###@ $$$$",
"$$$$$ @####     @@@@     @$$@$$$$@# @  +#% .*                @...                    %#   @ #@$$$$@$$@     @@@@      ####@ $$$$$",
"$$$$$  @@#####     @@    @ $@$$$$@# @   >%+ .*               @$$@                    %#   @ #@$$$$@$ @    @@      #####@@  $$$$$",
"$$$$$$   @@@@        @   @ $@@$$$$@# @   +  . *              @$$@                        @ #@$$$$@@$ @   @         @@@@   $$$$$$",
"$$$$$$$      @@      @    @ $@$$$$@# @    ++ .**             @$$@                        @ #@$$$$@$ @    @       @@      $$$$$$$",
"$$$$$$$$$$$$$  @     @    @ $@@$$$$@##@     +.+ *            @$$@                       @##@$$$$@@$ @    @      @  $$$$$$$$$$$$$"};
