/* XPM */
static char *result[] = {
/* columns rows colors chars-per-pixel */
"64 64 15 1 ",
"  c #3A2734",
". c #45283C",
"X c #595652",
"o c #663931",
"O c #D95763",
"+ c #AC3232",
"@ c #247679",
"# c #8A1A1A",
"$ c #1FA1A7",
"% c #1FB2B9",
"& c #25C6CD",
"* c #D6FEFF",
"= c black",
"- c #222034",
"; c white",
/* pixels */
"                                                                ",
"                                                                ",
"                                                                ",
"                                               .....            ",
"     .........                        XX       ............     ",
"           ...o..                    XXXX                .o...  ",
"                ..oo.. ..                                       ",
"                     o....o...o                                 ",
"                          o...........                          ",
"o...                          .........oo..ooo                  ",
"    .o....                       ..........o........            ",
"       ....                           .oo.o...............      ",
"          o...                                                  ",
"              ..o                                               ",
"                ..                                              ",
"                                                                ",
"                             OO    OO                           ",
"    ......                    +    +     .....o...              ",
"     .............            +    +        ......oo...oo..     ",
"               .....ooo..     +    +         @         ..o....o.",
"                    ........  +    +       @                    ",
"                         .....#... #        $ $                 ",
"                              ##..##...     %&                  ",
"                              #+OO+#.......&&&&&                ",
"                              ++++++     ..&***&                ",
"                              +O++O+       &***&                ",
"                          ... +=++=+       =***=          ....  ",
"                     .......  +=++=+       $%%%$      .......   ",
"          ............        ++++++             ...o......     ",
"        ...oo....              ++++          .......oo...       ",
"      .....                   --##--    ......o......           ",
"                             -==##==-                           ",
"                            -========-                          ",
"                            ==========                          ",
"                            ==========                          ",
"            .....           ==========                          ",
"     ............           ==========             ........     ",
"   ..o.                     ==========         ..o...           ",
"                            ========== .. ..o...                ",
"                            ==========....o                     ",
"                          ..==========                          ",
"                   oo...o...==========                      ...o",
"            ........o......-==========-               ....o.    ",
"         ............o..o. ============              ..o.       ",
"                           ============           o..o          ",
"    XX                    -============-       o...             ",
"   XXXX                   ==============     ...                ",
"                         -==============-                       ",
"                                                                ",
"              ...o.....                               ......    ",
"     ...o...o.......                          .............     ",
".o....o..                              ..ooo.....               ",
"                                    ........                    ",
"                             .....o....                         ",
"                         .........                              ",
"                    .........                                   ",
"                   .....                                        ",
"                                                       XX       ",
"                                                      XXXX      ",
"                                                                ",
"                                                                ",
"                                                                ",
"                                                                ",
"                                                                "
};
