/* XPM */
static char * wall_xpm[] = {
"128 128 22 1",
" 	c #403C38",
".	c #512321",
"+	c #2F0303",
"@	c #5B2833",
"#	c #53455B",
"$	c #000000",
"%	c #841010",
"&	c #696A6A",
"*	c #673B3B",
"=	c #5E312F",
"-	c #595652",
";	c #847E87",
">	c #75464A",
",	c #9B1515",
"'	c #640707",
")	c #67323F",
"!	c #695872",
"~	c #7F7284",
"{	c #733F49",
"]	c #7B0F0F",
"^	c #815E63",
"/	c #9BADB7",
"  .......     ..++@@#++.     $$#####@@@+$$%%%%%&&*&&&&&******%**&&&&%%***&&&%*&&&&******&$$$$#######$$.....++@@@$$              ",
" =======   ...  $@@@$  -=-- $$@@@+++$$$&&%&&%%***&*****&***%%**&**&%%%&*&&%%******&&*%%&%%%%%%%$$$#@@+$ ---..+##@+.....  ------ ",
"===--=---==-  +++@#$$----=.+$@##++&&&%%%%%%%%%%%%*******&&%;;&&*&&*%%&&*%%**&&*&&&**%%%%&&%%&**&*++###$$ --==+$##$$  --====-----",
"----=---=-=..+++@@++====..++@@@++***%*&%%&****%%%%%%%%**>%>==***&%%****%***%%%%%%%%%%%%%%%********++@@@++.-=--$$##$$  -----==---",
"--&*&&====-.$$##@@+====.++$@@@++*&*&*%%********&**%%%%%%%%--&&&&%%%%%%%%%%%&****%%%%%&&*&**&****&**++###++.===-$###$$ -----&**==",
"&&**==---=. +@###++==-=.++@@@++****%%%*&***&;>>%%%;;;%%%%%%&&&%%%***%%*******%%%%%*&&***=;***&&&**&&+$###+.---=++@#@+..-====****",
"***&---===.++@@@+$---=.+$+@#++*&*&%%%&&**&**%%%---==%%%%%%%%%%%%**%*&****&**%%%*&******&-;**&&&******++@@++.====++@#++.=====*&*&",
"&&&-=====..+@@$$+===== $@@##+&&&**%%*&**&&*%&&&&&*&%&&*&&&&&%%=*%%*&%%&*&**&%%&**&*&**&&=>********&&**+##@+.=---=++@@+ .=====***",
"&&*======.++@#$$$-==  +@%##++&&**%%*&%%%%%%;;&&,,,%%,,,%%%%%%>--&*&&%,,,***%***&********=;&%%%%''''***++@@@+..===++#@++.==---&*&",
"&*====%%%%%%%$$$==%%%%%%##%+&&**&'*,%,,,,=,,,,,%'%''''%%&%%**&;-****%%%,%%%%%&&%%*&**&&%%%'''''''**>>>>+@@#$$..===$+@@+. =---=**",
"**=--%%%%++@%%%====.%%%%%%%'''''''%,,,,,%%&%'''''''%%'%%%''%%%%%%%%%*****%&%%%%&''%%%''''''''';;;>>===-$$##@+$ -===$$@$$  -===&&",
"&&%%%='''''''%%--%-''''''''%***%>;>-==%%*''''''&%&&&%%%'**&'''''%''''''%%%'''''''%*&'''''';&;>=====*****+@)!!$.====++@##$ %%%-&&",
"%%-=''' +@#''''%%%%'$~~)++$&&*%>;=-&**'''''>;-&&%%'''''''&&'''''%%&&&''''''''&>;>;%'>&&&&-;&---&***&**&&$$){{+.=====%+##$.-=%%'%",
"&&='-- +@##+=--''' '''{!+$&&&%;=-***%''''*&&;-&&&&%&*&*&&''&*&;-&%''''*%;;;;;>-=-=%%%%&&&-;&******&******+){$~$.====%$#%'''%''''",
"**----.+##++=''''''+{+~+$$&%%;=&**%''**''%&&;-&&**&%**&&&'''&&;%'%%'&&;%%--%%%%%%%''''%%**=>*************++{+{+..--=%'''%'''''''",
"&----= +@@+$-==-.$${++~$&%%%>-**''''**&&&&'%%''%%%%%&&&&**&&''%'''%;&&-&*%%*''''%%''''''%%=>**&&**********%%%%~+$.%''''''$'''-=*",
"&--==- $@@+--=. .$!{$+{$%%%&***''''&%%%%'''%''''''''%***&*&%%%'''*%=>***%%%'''&&&%%%'&&'''%%&***%%*****%&*%%%%%%'''%%=+@@+%'%==*",
"&-====.$#$====..$)~+$~+$*&;=**''''%''''''**'''&'''**%%%%**%%'''&&&%&-;%%&''%*******%*&*&&''''%%%%'&**&%%&''%'''''+.==--$@+.-''-%",
"*=--   +@+=--.++$){$$~+*&&;=*'&*%'''''&'*&*'-&****'''''''%%%%*&&&&%&-%&''&&*%******&%&****'>'%%%''%%%%&&&'''''$~!+$ -==+#$. --'&",
"=---  $#@+=- .++){$ %%+*&&*>'&''''%%&&***'';=**&**&&%%%%%&&**%%&&&%%%%'****&*%&**&*&%%&&&&=>%%%%%%**%%%%''%$~$ ${!+..=-$##$ ---'",
"---   $#@$=..+++{+$%%''&&*%'''''''%****'''*>=&***&&*%%%%&**&*&&%%%%%''*&&&&&&&%&&***&%%&&&%%&'''%*%%***''&&$~$ $+{$$  =$@@+..=--",
"--  $$$@#+$.+$!){+.%%''&*%'''%%&&&&&&*'''&*;-***&**%,,,%*&%%%%%%''%%';&,,,,,&&*%******&%%%%;&'''*********&&+'+..$~!$$ ++@@++. ==",
"-  $$$!!#@$++$~{+=-%%'$*%%'''&%%%%&''''''*&>=**&*%%'''''''''''''',,,,,,''''',,,*%*&***&&&%-'''%%****&%%&*'''~$ =-$~$$$$@#!!$+  -",
"  $$!!~~!@#++!~{+='''%$%''%%'''%&''%''&*'''''&&*%&%',&%%,''&***&&,'''%%&%%%''','%%%**&*%%%';*%**&%%%%%%%%'*+{$ =-$~!$$#@!~~!+$  ",
" $$!~~$$#@#+)!~{+=-''%+%&&*%-&%&''''%%%%*'*''***%***&&&%'''''%%%%%%&%>''''''''''''%%%&*'''%%%%%%%>>>%%%''&&${$.--+{))+@@@++{)$$ ",
" $!~$$$~!!)))~+++%%%+{%&&**;%'''%''''''%%'%;=%%%'''''*%&''%&''''''%%=>**&&&&*&&&*&%&*'''&=>*%&**=--''''&&&&+{+$$+$${))))!{$${)+.",
" $!~$$$~!~{{)~++%%~~$%$&&*%%%'''%**&*&''''*%%%**''%%%%''*''&&&***'%'%%&%&&***&&*&&&&'****=>%&&**&&'%**&&&**${${{~,'{!{{~)~$$~)+.",
"$$~$$$$~~$$+{!{%{%%%%%$$+%+--%%*%&&*&&**&'''''''%%%%%'';;;'%>>;&&%&&''%%**********%'%*&*&&%&**&%''*****+++++~~{)',''~$'+~~$%%%%%",
"$!~$  $$~$ .+%%%%%%%~%$+%%%$+%%*%*&&**&*%''=**&;;;;-%'====-'-'-%%&&--;''%&&**&&%%%'&&**&&&%*&'''*****&$$+$++${++@,,'$.,+{+%.+{!$",
"$!$$-=.+~$-.%%%,%%$%%%%%%$+%+$&*%***&&%%%%>=&;;---=%''*****''&%--**>>*&;%''%%%%'''&;>>****%%'''****&&$$$+$+++$!$$',''.,$~%.=$+)$",
"$!{$&*-$+$=%%%,,%%%%$%''%!{+%+++%*&&%%''**%**==****'''**&&**%%%**&&**&&-%=%'';''>;;=-=&&&%'''***&&&$$$$+~)$++$!!+'''','+%$=*+{!+",
"@)~+**++{++%,,,%,%%%%''$%%{!$%%%++%'''***&%&&*******%'&&%%%%**%****&&&**%**%%%%=---%*&&''%&*%&&**++++$$)%%%%%%%%%%',,,+%{+$*+{)#",
"#!{+  +{{+%,,,%,,%%#''% $+~~~$+%$'''++&%&&&%&*&&**&&*'&*&&&*&&%%**&*****%&&&=&%%%%%%%%'%&%**%&$$++$$+$%%~$ %%%%!!$',,,$$~~+ $~!#",
"#!{$%%%{{+,,,%,,%%%''%-.+$$~~)%%''''~$$%$$$%+$$%%*&&*%'*&**&&**%***&&&&*%&&*****&%''''$++$++%$$~~{~$#%{~%%%%=%+)!$',,,+$~{$ %%%%",
"#%%%%$%%%%,,%%,,%%'''%=.$$%%%%%%%%%~~{{%~~~{%~%$$++++$'++$$$+++%$$$$$$+$%$$+$+$+$%'''$~{{{{{%~'~~~~%%~~{$% -%%+)!!',,'+~)~%%%~)@",
"%!~+{{{!%%%%%,,%%%''%%%%%%%%%%'+')!%%%!%!!{~%%{{{{{{~{%'~~~~~{%%~~~~~{~~%~~~{~~{%'~~~~{~{~))%%'!!!$$)~~)$$%%==$#))',,'+{)%%~+{!#",
"#!~$++$~%%%%%,,,,%%%%*=   +%'%)'+##@!!)%%%%%%!!!)))!)!%'!!!~{~{%~~~~{~~%~~~~{~{~%'{{!)!)!!))!%'!'#$+!~%%%% =&-+@@!','''!%%++$~!#",
"!~++.  ++%%%%,,,%%%%'*-=..%'%~'+$!)!#@%%#@#@!))))!!))))%'!!!)!)%!!!)!!!%)!!!))!)%'!!)))!###@#%''!!$+){))% ==&=$+##''''~~%%  $${%",
"#)~$$+=.+%%%%,,,%%%%'%== ''%)')++++%%+%++$@@@##@@####@@%'!!)!!)!%!!)!!!%)))!))))%'))#@@###$+$$'$$+++!~!@%.==*-=$##''''!%% -$$~%#",
"@#!{+$= %%%%,,,,%%%'%%%=%'%%%%%%.$$% %$+++@#@@@@######@#'@@@##@#%#@####%@@@@##@#%'##@#@###$+$%' $+.$!~)%$.==&=-$@@''''%$$ -$~!%#",
"##)~++$%%'%%,,,%%%%'=''%'''%!~)+%.+%-.+. ++@@@#########@'#@@##@#%@#####%###@##@@%'@#@##@#$+ %%'-$..$!{%#$.-=&=-+##'''%~$ -$$~%##",
"@@#)~~%%%'%%,,,%%%'''''''''#!~)$%%%%= + ..$$$$$$$#####@@'@@@@#@#%@####%@@#@#@@@@@'#@#$$+$$. %' -$.=$)~%#+ =-*-=$##%'%%$ --${%%##",
"!@@!~%$%%'%%%,%%''''%&%%%%%#%%@$=%+%- ++-%%++$$$$$##@@@#'@@@@@@@%@@@@@%##@@@%@@@@%'$$$$$+$.%%' -$.=+#!%#+.==*=%%%%%%%~$ -$%%!##)",
"{!#%!%%$$''%%%''']''%%-= .$#%%%$=.%%%%.$%%$...%+$$$+$+$%'+$+$$+$%++++%%++++$$+++%%'$$$   +.%'  -$.=$#%##+.-=-%-$###''%$$$%~!##)~",
"$~%%%!~$~''%%%'''''%%%%%  +#%%%$=%%$$%$%+++$$%$+***&*&%&'&&*&&*%%**&%*****&&**&%%''''+$++++%'$$++.-$#%#@+.=%%-$$###''~%%%$~)@){$",
"%%~!!!!~!'''%'']]''%'%%%% +#%%%%%%$$+$%%*&*&%**&&&&*&&%'*&&***%%****%****&%%%%%&''&******'''''++++$$#%#@+.%-==$###$''!{!!{)!!{$$",
" $$~~~!!#%'''''''%''''''% +#%%$%%%&*%%***&&%%*&&&**&,%''%>>>>%*****%**&*&%%%*%&''&***&&&&&&&%%&**+$$%###+.%---+@##$''@)@@!!{{+$ ",
"   $$$~~!@%'''%%$'''%-%''%+#%%$%*&%%***&&;%>**&&*&,,,''===%%%%%%*&*%***&&%**%%''***&*&**&&%%%**&*&&$%@##+% --+$#@+++++$#!{{$+.. ",
"-     +{++$%''%%%''#%-$'''%+%%+$*&*%*%%%%%%%%%%%%,%%''%%%%;%&***%%%**&&&%*&%%''*******&&**%***&&*&&$%$#$%$$+=$@@$++~{~$$+~+.. .=",
"==....$+++${''''''$#%%$&''+%'%+***&*%&&%%***===,-%%%%%%%&&%-*****%%****%&&%''''&&&&&&****%%&&&&&*&*%%%@%+**++@@++~{{{{+++++.  ==",
"&--   ++. +~!'''''%$#$%*&'''%%&%&&**%-&*&&&&*&%%%''''''&%%;=**&&%%**&*%%%%'=''&&&&*******%&&******%%%$%$$**$$@+$${))){$  ++..==*",
"&-- $++. $+{%'%''%'$$$%&*&''$%&%%***;%*&&*%%%%&%%''*'&'''&%%*&&%%%>>%%--%'''*&****&***&**%******&&%%&&%++*&&$$+*%+#@)~++..++ --&",
"&--.++ .$+{!!%%''''%;=&%*%%%%&&&%&&*;%%%%%&&&'''''*&&&&'''>>%'%%%%%%%-&'''*****&&&**&**%%&***&****%**%**&&&&%%%%*+@@)){++..$ --&",
"*== $+. +{!!@@%%'%%''=&%%%%'%&**%&%%%%&%%&''''''%%%%&****=,,''%%%%%''&*****&&&&=>>*&*&&%******&&*%***%**&&&%**%&*$+@@)){+. +.--&",
"*==.++.++{)@##%+%'%''-&%%%''%'&*%%&*;%%&'''''*''''*%%**&%,,%&'%,,,''%''''%%%%%%=>**&&%%%%*'&&&**%*&&*&*&*%%%%%****+###)~$$.+.==*",
"&=- ++$+{~!#@@%+&%%%%=%%%''%%%%%&%'*%%&'''''*&&**''''*,,,''''''%''''''&''''''**%%%%&*%%%%'%&&&%*%%%%%''%%%%'&%%>>>$##@!~{+$+.=-*",
"&-=++++{!!##@$%$&%**%%%%'''%%*%%%%'''''''%%%&&&****'','''&&&&'%'''**&&&'&&&&''''>*''%%%''%%%%%%%'''''''''''''''%=-$$@##)!~$++--*",
"&==++${)###@#+$%&%*&%%%%%'*&%**%%''';=*''''%%******%,''**&&&*%%'''&&*&''&&&&&**=''''''''%%%'''''';-&**&**&&>>=''*&++##@#@){$+==&",
"=-++$+)####@+$$%&%*&%'%'%****%%%''&&>=**&&''*%&&*&&%'*&&&*%%%%**&&***''&&******=>*'%'''''''--==%%,,,,,****>--&&''*$$$@#@@@)+++--",
"+++++$######+ $%&%*&%%%'*%**%%%'&%%%%-&&&&**''%*&&%'&&%%%%>>=%&&&**''&*******&&-%%%&'''--&%%*%&&,%%%;=*&%%-&&&&**'% +#@@@#@++$$$",
"***+$$####@+$.$%&%**%%&&*%*%%'%%%**&;%%%**&&'''&&*''&%&;;>==-%&&*''''**&*&&'''%%-;&''''&&&&%%&&*,&&&%%%%%%%&&&****+.++@%@@#$$&&&",
"&^*$++@@@@#$+.$%*%*'%%&*&%%'''%**%%%%%%&&&&&*''%*&';%;>===&**%,,''''%%%%%%''''%&-'''''&&&&*%&&*,&&&&>-%%%,,%%%****+.+$@%%%#++&/&",
"^^*+$$####$+ $%%*%*''%&*&%%''>>;;%%>>*%&&***>>',,'>-==-&&****%,%'''''''''''''''''''&'&&&*%%%**,&&&**;-%%,,,,%'%%%%'''%%##'%%%%//",
"^*&$$$####$. $%*%%*''%>&&%%'>--%%%%>>*%**;;;,,,-',=*&&&**&*&,%'''''&***&&&**&&&&%'&'&&&%%&%*&*,***&&,,,,,,%%'''''''''''''@''''%^",
"*&&$$$###$. -%***%%%'%=;%%%%%%%**&%%,,,%%,,,%%%%'''&***&*,,,''**&%&**&&***&&&&&%';'&&&%%&*%&,,&&&&,,>%%,%%%&''**'''''..+@@@++'''",
"&&-$$$##$+ -=%*&**&''%%%%'%-&**&&&*%%'-'''''''''''''%&,,,'''>=*&&&**&%%''&&&&%%'''&&**%&*&%,&&,,,,,%''&&%%%''%**&&&$-=.++@#$$=*&",
"&&-$$$@@+  =-%*&>=''*%%%'%***%'''%&*'''''****&*****''%%'''&&*;=&****%''''''%%'''-;&*&&%%%%,,,,,''''''-''&'''*&&*&&*+==  $##++-&&",
"&&-$++#$+.==*%*&>=''*%%'%%%%'''''''&'''%%%*********%'''''%''''%%%&&'''&&&&'''''%%%%%**%%,%%'''''&***%%%&&%''&&****&+*==.++@++-&&",
"&&-+$$$+ ==-*+%*>=''*'%%'''*%&&&**''''''''******%%%''''%%'''''''''''*%''''''''''''''%%,,%%%&&&***&*%>=**''******&**$*---.+$+$=*&",
"&&=$$$+$.=-*&+%*>=''%'''''&*&%&&*&&;'=**'''*****%'''&&*%**&&**;%'''*%'''*'&&&&&*=>%%%,%,,,%%&*&&&%%*;-&%''&*&**&**&$&&== $$$+=&*",
"&*-$$$+..-=&-+*%>='***''''&*&%&&*&&&'=&**'**%%%''''&&*%&&****%%''''''**&**&&&&&%%%%%%%,,%%]%%%%%%***>=%''*&&*&***&&$-*==..$$$-**",
"=- $$++..=&-++&%>-'&*'''&&&*&&%%%&&%'=*&*'*'%''''&&&*%&&*&&*%%'-&*''*&&&**&&'%%*=>&%%%,,%%'*%%%****&;-''&&&*****&**++-&-. +++.==",
"   $+$+..--=++*%>-'**%%%%&*&&&*%&&*';-***''''&%''&**&%**&%'''''-*''*****&&%%&'''''''%,,%'''****%&&&&>''*&&****&****$$=== .$$$   ",
" $$++$+.--=$++**%>'**%&&&%%%%%%%,,%';=*&'''&&&%''*&*%%%%%%'''*;=&''*&&&&%%'''''&-;%%%,%'''%%&*&&%%&&%''*%%%%****%**$$$--=.$$$$$ ",
"$$*+$+. ==-++++$*%'**%&&&*&%%,'%'''%;-&*%%%&*%&'*&*%%&&'''&&&*>%''%&&*%%*''&&&&%%'%'%%'''&&&%%&&&&%*''***%%'%**%*&+$$$-== .$$&$+",
"&&&+++ .==+{{$$+&'%*%&&&&%,%''%''&&%;-*&%&*%%%''&&*%'''**&&***%>''***%%''&&&&&%,''''%'']%&&*&%****%%%=****''*%%%&&$+~{+=-. ++**&",
"&/*$++ .=+$~{~$$&''*%&&,,,*%'&%&*&%'%*&%%*&&%%'&&*%*********''*''&***'''&&&&&%,'''&'''&&&%%%%&%%%%&''%&**&'*&&&%&&+~{{$$- .++&/&",
"&/*++$..-+${!!$$&''&%&,''''%&%&&*%%'-%%%&*&*%&'***%*&***&%''''&''*&%''*&**&*%,'';''''%&&%%&%%%%&&''*>%***'*&&&%*%*+))~++=. ++*^*",
"/^*+++. +$~{!!$$&''%&'%%%&%&&%&&&%''''%&*&**%''&*%>*&*%%%'''*%*''''''******,,''&&''&''&&&%%&***%'''*>%**'*&***%*%*$)){{++..++*//",
"^**+$+ .$~~)!#$$&''%''''&%%&&%&&%'';''%&*%%*%''*%&;&&&%'''&*&&'''**&&*****,%''&&&''&&'%%%%&&&&&%%'*&%%'%'**&&%&&*&$@))~~$  ++**^",
"&*&+++. $~)!##$$&'%''&&&&&%%&%**'';='%&&>%;>%'%;>;-&%%''=&*&&''**&&**&&*&,'''&;;;''''%''&%&&&&''%*%%;'''**&&*%**&*+@@!)~$  $+***",
"&&*++$.$~!)###$$%%%'%%%&&&%*%&%%'';'';;>'''''-'%%%%*%&''=*&&'%'&&**&&**,,'''';--'''-%%'''%&&%'&&%%&''-'**&&*%*&&&*+@##)!~$ $$**&",
"&&=+++$$~!@###$%%%&%%%%&&%&;%%%''--''--%''''''''''&%''%;=***'';;>;;,,,,%''''--&%''&&&=>*%%%%'&%%''''''**&&**%&&***+@###)~$$$$=*&",
"&&=++$$~!@####%%%%%%,,%%%;;-%%''&&&''&%''''&*&'''*%''&&%=*&&&-==--===-%%'''%%&&%'&***-;,%%%'%%&'''''***&&&*%&&*&&&+@###@!~$$$=*&",
"&-.+$$!!#@#@@#%%%%%,,,%%%--%%&'&&&&&'%''''&*&&&**'&''''''%&&&=&&&*&*%'''''&&&&%''*&**=>,&''''&'';;&*&*&***&%&*&&&*+@@###@!!$$.-&",
"&  $$$##@#@@@%'$%%,,,,%%&&%;''&&&&&&'''''*%&&&*&'''&&&''''''*&&%%%'''''';&&&&*%'&**&*=%%'''&''>>>;;>>>>;*&%**&&&**$+@@##@##$$. &",
"  $$$$@@@@@#%%''%%,,%%%'''%'-&&&%***''''*%%&&**'*'&&***>='''%&%%&'''&&&-;&***%''*&&*&,%%';;;>''======--;&%*&%%%&*&*$#@@@@##$$+  ",
" $$+++#@@##%'''''%,,,%]'''';-&%%&&%%'''&&%***&'''&**&&*;=&*''%%&''%'''%%>*&&%''&&&*&,,''%----&'''*&&*&&%%%%%&'''%%*$$#@@@@@$$+$ ",
"+**+$+@@#@''''''%%'''%''''*;=%*&&**&'%&%%**&&%''**&&&*&>-&&%%&'''''''''''%&&%''&&*,,%''=%%*****%'''&***=%%%,''**'''%+@@@@@@++**+",
"*&*++$#%%'''$+*&%%'''%'''*&%%&&**&&%%%%%%***%''*&*&&*&*;-*'''&&*&&&&&''''&%%''&&*&&%''=***%&&&&*''''*%&%%,,%'&%&&''%%%%%#@@++***",
"*^*$$%%''''$.+&%*%&'&%&&''*%%%%%%%%%&&'''%&%''*&&&&*&%*>%''&&&*&&&&**&&''''''%&*&&%''=;&&&&%&&&*&'''%''%,,,%%*%&&&&' $$%%#@++*^*",
"*/&%'''''#++.+*%&&%&*%&*''%;=*&&&&&*&'''''%'&*&&&&*%%%%'''&&&*&&&&*****=;&''''%*&%*''->&&&&%&*****%%%''%,,%%''%****+''''%%%++*^*",
"%%'''$@@#+$.+$*%*&%*%&&*'%&>=&&&&&***&&'''''*%%%%%%%%%';'&***&&&*****&&=;*%'&'''%%''&-;*****%&&&%%&&**%%,,%'''****&+$ $$''''%%%%",
"/*'$$+#@+$+ +*%&**%*%&*&%'&>-&&&&**&&&*&%%%%%%%'''''''''''''%******&&&&=>&''&&&''''&&-;&&***%%%%&&&&**%%%%'''%&&****+.+++@#'''''",
"*&&+++@#$$..$*%&**%*&%&%*''*>=&&*&&&***%**''''%*&*'''''''&**%%%%%&&&***=;&'&&&&&'''''-;**%%%%&&&&&**&&&%%%''%&&&&***+  $$#@$$&&&",
"&*=$++#$$+ =$*%*&&%*&%%*&&'&;=%******%%*&*&''''%*&&&&&&;''''*'**&%%%%%%%%%%&&&&,'&&&''%%%&*&&%&***&&***%%''&%&&&**&*$=.++$#+$-&&",
"*&-$+$$++$.-$*%*&*%&&%**&*''>%*****%%&*>>;;>''''%>;>>**>=**''%'*****&&&-''&&&,,,''&&%%%%%**&*%*&****&*&%'''&%&******+=.++++++=**",
"&&=++++$$. -+&*%**%*%&%*&*&'%=*&&%%;;;>---=--''''%=-;&*>=&%%''*'%&&&&&*=''*&,%&''*>>;;;''''%&%**&&&&*&&%''''*****&**$-..++++$-**",
"&-=+$$$/$ -$+&*%*%*%*&%****%'%%%%;;--=-&&*;--&*'''%***&>=**%&''&'%%&&*&''&*,,''''*-=---=*''''%&&&&&*&&&&%%'%%%%%**&*$$- $/$$+--&",
"- +$$$/$$ -$+&*%%*%&*&*%%&%&=''%%---**&&*&;-****&'''&**;-*&%&&'''&%%*&'''*,&''&'&&&***=>***'''%%**''''''''%&&*&&&&**$$- $$/$+$ -",
" $+$//$$  -$*&%%%&%&*&*%%%&**&''&%;=*&****>=&&&**&'''&*;=&&%&&&&&'''%''''&,''*'*&-;&&*=;**&&*''''''''''%%%%&*&&&*****$-  $$/$+$ ",
"$/^/&&$$ --$*&**%&%*&*%&&&**&&&'',%%****&&;-&&*&&**'''%'-&&%&&&&&*'''''-,,''''&&*=>***->******&&'''**%%&-;&*&&**&&&&&+-- $$&/^/$",
"/^&&&&$$ -&$*&**%%&*%%&&***&***&&,,=%%&&&&;-**&*,,,%'%''-&&%&&******&&',,''''&&&&-;&&*=>******&&*&&&%%**>>****&&&&&&&$*=.+$&&*^/",
"^&***&$ -&&$*&**%%*&%*&&*****%%%%%%,'&%%%&;=*,,,&&'''*''%%%%*****&&&&&=%%''&&&&&-;&&&=;&****&&**&&&%***&-&*&***&**&&&$&&- +**&&/",
"&*&&**+.=**+**&&%%*%*&&***%%%%%%%%'',,,,,,,,,%''''&''**>=%*%&&*&&&&&**%''%&*****-;&**-;****&&*&*%%%***************&&&+**=.+*****",
"*&&&&&$ -&&$****%,%%****&%%''''''''''''''''%''''&&***&&;-*%%&&&**&**%'''''%&&*&*-;*&*=>&&&&**&**%&***&**>;;;;********$&&- $&&***",
"&&&***+ %%%%%%%%%,%***&%%'''''''&&;-****'''''&&&****&**>=*%%&&&***%'''-;*'&%%**=>***-;&&*******%%*&&;>>>-====>*******+%*= $&&&&*",
"&%%%%%%%.**$&*&%%,%**%%%''''******%%&&&&**;=****&&*&*&&>=***%%%%''''&*=>&*%%%,,=>**=>>****&&&*;%;;;>=-=-&&*--;&&&&***$&&  $&***&",
"%*&&**+  =*+**%%,%%'%%'''&&&&&****%'*&&*&*>=**&&&****&&;%%%''''''';>>>;;%,,,,'''*==>;&&&&&&&>;%;====**&&**->*&&&&&&**+&-..+*&&*&",
"****&&++.-&$&&%%,%%''''&&&&*****&%&'******>=*&&&**&&&&%'''''%;='========%'''''''''''&;;;;;>%%%==&&&&&**%%%%%'''''&&&&$*= %%%%%&&",
"&&&&&&+$ --$$&&%%%'''**&&*******%*'>>*****;=********%%'''=====&&****&&&&%'''''''''''''''%%%%%%%%%%%''''&'''''''&&&&&$%%%%%%&&*%*",
"-&&&&*$$$---$&&%''''&&>>>****>>>%>'=-&&**>>=********'''==*********&****&&&'''''&&&**==**''''''''''''''%%**=>&&%%%%%*%%-=$+$**&&-",
"---&**&$$---$&'''''%>;===&&>>;=%-'*&&&***>=>>>&***%%************&&&&&&&*****&&&***-&&****&********&&%%***==>**%*%%*%%--=++*&&-==",
"-------$$$--$$''''%-===&***===%*'&****&***===-;;&%%%'&&&*****&&$$$$$$$+******&&***-;&***&*&&******%%&&**&*;>*&&&%%%$$--+$$--==--",
"       -$$$-$$&&*--&*&***&&&%%%*'**&&******&&&--%%'&&&**&&&&*++*^////^*$$&&*&*****=>********&&**&%%'*'*&&&>>****&&%$$-+$$-..    ",
"$$$$$$$  -$$-$&&&**&*&$$$$%%+*&'*******&+++$$$$%%'&&&*&&&***+**/^^^^^^^**+***&**&&->&$++++$+**&**%'''''+++++*******+=++=..$$$$$$",
"&&&***&$$  $$$*****&*$$$$%%''+'&&&&&&*&*$$+$$$%%''*******&*+*^////^^^////&+&&**&&&=;++++$$++&**&%%''$++++++++*&**&&$$+  $+******",
"&****&&&&$$$$$&&**&*&*$$%%''^'$$&&******$+&&/%'''$*&******+&/////***&/////*$*&&&***+$*&/&*$$*&&&%''++$//&&$$*&&***&$++++*&**&&&&",
"+$+$$$$$&&&$$$$$$++++++%%%'''^+++++$$+++++++%%'''+$+$$++$$&//&&**&***&&&&^^*++++++$++$//$$$++$$%%'+$$//&&$$++$$+++++++&**+$$$$$$",
"$&^////$$$&&/^^^^^/^/^^/^%'**^^$$^^^^^^^^/+*%%'''*+&&*&&&$&/&**&&&&&**&&**/&+*&*&*+&*//&&$/^///%%'$$//&&&//^//^/^^^^^**+$+////&$",
"$+$$&&///$+**////^^^^^^^$%'*&&//+$///^^/^^+%%*'''*$**&&&$&&**&&&&&****&&*****+**&*$*///&&$^^^^%%'$$//&&&$$/^//^^/^^^**++^^^*++$$",
"-=-$$$&&^*++****^^^/^^^^%%'$&&&/+$&&******$%''''^&+$&&&&$&*&&&&&**&&&*&******+***$+&/&&&$+*&*%%''$$/&&&$$&^^/^^/^^***++*^**++-==",
"-=---=+++*&$$&&&&**&***%%*'$&&&^/$$+&&***&%%''&'**&$*&&&+=&&&&****&&***&*&&&=$*&&+&&&&&*+&&**%&'$$//&&&$$&*******&*&$$&&$++-====",
"-======++&&$$*********%%%'&$-&*&/$$+&&**&&%%''**&**+*&**$-*******&&&*****&&*-+&&&+&&&&**+***%%&'$$/&&&&$&*&**&&*&&**$$&&$$-=----",
"--  ..+$$&*++$&&&*&&*&%&''=$-=&&/&+$&&**&&%'+=*****+****+=---=&&&&&&**&&&==--+&&*$&****++***%%'&$&/&&&-$=***&&*&&&*+$$&&$$$ ..==",
"   +$++*==&$$---&***&%%''-=$+--&&&+$&&**%%'''''&*&&$--&&$ -==-------==--=---.+**-$*&&*-$$*&*%'&&$&&&&-=+=--=&*&&&&==$$&--&$$$   ",
"$$+$==---$$$-----==-=%'--- +$ -&&*$$-=&%%''''' =&&&$  --$..======--=====--- .$--.+***= $---&%'--$&&&*=$+ -===-----=--$$$----$$$$",
" ...  $$$$$$    ..   '    ..$   . $$$.'%%''''+.    $$   .$       .. ..      + . $$     $    '- ++...  +   .       .. $$$$$$     "};
